<?xml version="1.0" encoding="iso-8859-1"?>
<!-- Generator: Adobe Illustrator 19.0.0, SVG Export Plug-In . SVG Version: 6.00 Build 0)  -->
<svg version="1.1" id="Capa_1" xmlns="http://www.w3.org/2000/svg" xmlns:xlink="http://www.w3.org/1999/xlink" x="0px" y="0px"
	 viewBox="0 0 480 480" style="enable-background:new 0 0 480 480;" xml:space="preserve">
<g>
	<g>
		<path d="M96,168H40c-22.08,0.026-39.974,17.92-40,40v80c0,4.418,3.582,8,8,8h48c26.499-0.026,47.974-21.501,48-48v-72
			C104,171.582,100.418,168,96,168z M88,248c0,17.673-14.327,32-32,32H16v-64h72V248z M88,200H17.472
			c3.378-9.555,12.394-15.958,22.528-16h48V200z"/>
	</g>
</g>
<g>
	<g>
		<path d="M32,224c-4.418,0-8,3.582-8,8v16h16v-8h8v-16H32z"/>
	</g>
</g>
<g>
	<g>
		<path d="M440,168h-40c-13.255,0-24,10.745-24,24v56c0.026,26.499,21.501,47.974,48,48h48c4.418,0,8-3.582,8-8v-80
			C479.974,185.92,462.08,168.026,440,168z M392,192c0-4.418,3.582-8,8-8h40c10.134,0.042,19.15,6.445,22.528,16H392V192z M464,280
			h-40c-17.673,0-32-14.327-32-32v-32h72V280z"/>
	</g>
</g>
<g>
	<g>
		<path d="M448,224h-16v16h8v8h16v-16C456,227.582,452.418,224,448,224z"/>
	</g>
</g>
<g>
	<g>
		<path d="M472,304h-40c-30.913,0.035-55.965,25.087-56,56v4.688L340.688,400h-97.376l-13.656-13.656l-11.312,11.312l2.344,2.344
			h-81.376L104,364.688V360c-0.035-30.913-25.087-55.965-56-56H8c-4.418,0-8,3.582-8,8v160c0,4.418,3.582,8,8,8h88
			c4.418,0,8-3.582,8-8v-39.2c16.088,15.2,17.28,15.2,19.88,15.2h80.8l29.656,29.656c3.124,3.123,8.188,3.123,11.312,0L275.312,448
			h80.8c2.544,0,3.888,0,19.888-15.048V472c0,4.418,3.582,8,8,8h88c4.418,0,8-3.582,8-8V312C480,307.582,476.418,304,472,304z
			 M88,464H16V320h32c16.658,0.044,31.54,10.418,37.344,26.032L73.6,334.264c-9.699-9.721-25.442-9.738-35.163-0.038
			c-4.717,4.707-7.348,11.11-7.301,17.774c0.024,6.64,2.734,12.989,7.512,17.6C60.432,390.792,76.296,406.216,88,417.496V464z
			 M126.704,432c-6.312-5.6-29.024-27.256-76.904-73.832c-3.488-3.422-3.541-9.024-0.119-12.512
			c0.018-0.019,0.037-0.037,0.055-0.056c3.464-3.448,9.064-3.448,12.528,0l68.08,68.08c1.504,1.492,3.538,2.326,5.656,2.32h84.688
			l-16,16H126.704z M240,460.688L219.312,440L240,419.312L260.688,440L240,460.688z M353.4,432h-78.088l-16-16H344
			c2.122,0,4.156-0.844,5.656-2.344l68.072-68.056c3.509-3.362,9.043-3.362,12.552,0c3.464,3.447,3.478,9.049,0.032,12.513
			c-0.029,0.029-0.058,0.058-0.088,0.087C382.344,404.968,359.64,426.536,353.4,432z M464,464h-72v-46.304
			c11.72-11.288,27.608-26.76,49.408-48.056c9.815-9.592,9.995-25.323,0.404-35.138c-0.073-0.074-0.146-0.148-0.22-0.222
			c-9.843-9.419-25.357-9.419-35.2,0l-11.752,11.76c5.801-15.624,20.694-26.004,37.36-26.04h32V464z"/>
	</g>
</g>
<g>
	<g>
		<path d="M252.424,77.264l-17.688-8.8c-1.692-0.84-2.755-2.575-2.736-4.464c0-4.418,3.582-8,8-8s8,3.582,8,8h16
			c-0.042-10.134-6.445-19.15-16-22.528V32h-16v9.472C222.445,44.85,216.042,53.866,216,64c-0.024,7.94,4.464,15.205,11.576,18.736
			l17.688,8.8c1.692,0.84,2.755,2.575,2.736,4.464c0,4.418-3.582,8-8,8s-8-3.582-8-8h-16c0.042,10.134,6.445,19.15,16,22.528V128h16
			v-9.472c9.555-3.378,15.958-12.394,16-22.528C264.024,88.06,259.536,80.795,252.424,77.264z"/>
	</g>
</g>
<g>
	<g>
		<path d="M240,0c-44.183,0-80,35.817-80,80c0.049,44.163,35.837,79.951,80,80c44.183,0,80-35.817,80-80S284.183,0,240,0z M240,144
			c-35.346,0-64-28.654-64-64c0.04-35.33,28.67-63.96,64-64c35.346,0,64,28.654,64,64C304,115.346,275.346,144,240,144z"/>
	</g>
</g>
<g>
	<g>
		<rect x="40" y="136" width="16" height="16"/>
	</g>
</g>
<g>
	<g>
		<rect x="40" y="104" width="16" height="16"/>
	</g>
</g>
<g>
	<g>
		<rect x="40" y="72" width="16" height="16"/>
	</g>
</g>
<g>
	<g>
		<rect x="40" y="40" width="16" height="16"/>
	</g>
</g>
<g>
	<g>
		<rect x="72" y="40" width="16" height="16"/>
	</g>
</g>
<g>
	<g>
		<rect x="104" y="40" width="16" height="16"/>
	</g>
</g>
<g>
	<g>
		<rect x="136" y="40" width="16" height="16"/>
	</g>
</g>
<g>
	<g>
		<rect x="424" y="136" width="16" height="16"/>
	</g>
</g>
<g>
	<g>
		<rect x="424" y="104" width="16" height="16"/>
	</g>
</g>
<g>
	<g>
		<rect x="424" y="72" width="16" height="16"/>
	</g>
</g>
<g>
	<g>
		<rect x="424" y="40" width="16" height="16"/>
	</g>
</g>
<g>
	<g>
		<rect x="392" y="40" width="16" height="16"/>
	</g>
</g>
<g>
	<g>
		<rect x="360" y="40" width="16" height="16"/>
	</g>
</g>
<g>
	<g>
		<rect x="328" y="40" width="16" height="16"/>
	</g>
</g>
<g>
</g>
<g>
</g>
<g>
</g>
<g>
</g>
<g>
</g>
<g>
</g>
<g>
</g>
<g>
</g>
<g>
</g>
<g>
</g>
<g>
</g>
<g>
</g>
<g>
</g>
<g>
</g>
<g>
</g>
</svg>
