<?xml version="1.0" encoding="iso-8859-1"?>
<!-- Generator: Adobe Illustrator 19.0.0, SVG Export Plug-In . SVG Version: 6.00 Build 0)  -->
<svg version="1.1" id="Capa_1" xmlns="http://www.w3.org/2000/svg" xmlns:xlink="http://www.w3.org/1999/xlink" x="0px" y="0px"
	 viewBox="0 0 512 512" style="enable-background:new 0 0 512 512;" xml:space="preserve">
<g>
	<g>
		<path d="M364.28,418.183c-4.141,0-7.495,3.355-7.495,7.495v4.52c0,4.141,3.355,7.495,7.495,7.495c4.141,0,7.495-3.356,7.495-7.495
			v-4.52C371.775,421.538,368.42,418.183,364.28,418.183z"/>
	</g>
</g>
<g>
	<g>
		<path d="M403.046,411.036l-3.197-3.196c-2.93-2.93-7.676-2.927-10.6,0.001c-2.927,2.928-2.926,7.674,0.001,10.6l3.197,3.196
			c2.927,2.928,7.675,2.926,10.6-0.001C405.974,418.707,405.973,413.961,403.046,411.036z"/>
	</g>
</g>
<g>
	<g>
		<path d="M321.474,375.375h-4.52c-4.141,0-7.495,3.355-7.495,7.496c0,4.141,3.355,7.495,7.495,7.495h4.52
			c4.141,0,7.495-3.355,7.495-7.495C328.969,378.73,325.614,375.375,321.474,375.375z"/>
	</g>
</g>
<g>
	<g>
		<path d="M339.311,407.84c-2.928-2.926-7.673-2.926-10.601,0l-3.196,3.196c-2.927,2.928-2.927,7.673,0,10.601
			c2.929,2.927,7.673,2.926,10.601,0l3.196-3.196C342.238,415.512,342.238,410.767,339.311,407.84z"/>
	</g>
</g>
<g>
	<g>
		<path d="M215.871,324.036H82.326c-4.141,0-7.495,3.355-7.495,7.495s3.355,7.495,7.495,7.495h133.545
			c4.141,0,7.495-3.355,7.495-7.495S220.012,324.036,215.871,324.036z"/>
	</g>
</g>
<g>
	<g>
		<path d="M244.833,358.263H53.364c-4.141,0-7.495,3.356-7.495,7.495c0,4.141,3.355,7.495,7.495,7.495h191.469
			c4.141,0,7.495-3.355,7.495-7.495S248.973,358.263,244.833,358.263z"/>
	</g>
</g>
<g>
	<g>
		<path d="M244.833,392.488H53.364c-4.141,0-7.495,3.355-7.495,7.495s3.355,7.495,7.495,7.495h191.469
			c4.141,0,7.495-3.355,7.495-7.495S248.973,392.488,244.833,392.488z"/>
	</g>
</g>
<g>
	<g>
		<path d="M244.833,426.714H53.364c-4.141,0-7.495,3.355-7.495,7.495c0,4.141,3.355,7.495,7.495,7.495h191.469
			c4.141,0,7.495-3.355,7.495-7.495C252.328,430.069,248.973,426.714,244.833,426.714z"/>
	</g>
</g>
<g>
	<g>
		<path d="M503.154,238.804l-0.014-0.009h-0.001c-6.544-3.778-350.144-202.156-357.449-206.374
			c-7.645-4.412-17.46-1.785-21.873,5.862L40.982,181.761c-4.425,7.665-1.804,17.448,5.86,21.874l139.236,80.389H17.019
			C7.635,284.022,0,291.658,0,301.041v163.66c0,9.384,7.635,17.019,17.019,17.019h114.59c4.141,0,7.495-3.355,7.495-7.495
			s-3.355-7.495-7.495-7.495H17.019c-1.118,0-2.028-0.909-2.028-2.028v-163.66c0-1.118,0.909-2.028,2.028-2.028h195.026
			c8.853,5.111,61.789,35.674,70.739,40.841v38.273c0,4.141,3.355,7.495,7.495,7.495s7.495-3.355,7.495-7.495v-29.618
			c4.584,2.646,37.529,21.668,42.131,24.324c-1.306,3.158-2,6.559-2,10.036c0,25.201,32.072,35.873,47.262,16.095
			c0.178,0.103,18.981,10.959,19.159,11.059c9.196,5.312,18.554,1.822,22.71-5.378l3.75-6.495v66.546c0,1.12-0.93,2.028-2.028,2.028
			H297.775v-53.622c0-4.141-3.355-7.495-7.495-7.495c-4.141,0-7.495,3.355-7.495,7.495v53.622H166.588
			c-4.141,0-7.495,3.355-7.495,7.495s3.355,7.495,7.495,7.495c7.036,0,255.206,0,262.169,0c9.428,0,17.019-7.704,17.019-17.019
			v-92.511c2.581-4.471,60.417-104.645,63.592-110.144c0-0.001,0.001-0.001,0.001-0.001
			C514.841,252.565,511.299,243.507,503.154,238.804z M285.369,324.037c-8.416-4.859-218.778-126.311-231.031-133.386
			c-0.488-0.282-0.656-0.907-0.374-1.395L136.801,45.78c0.189-0.328,0.534-0.512,0.887-0.512c0.174,0,0.349,0.044,0.509,0.137
			l231.031,133.387L285.369,324.037z M353.154,380.483l18.768,10.835C363.772,398.703,350.815,391.231,353.154,380.483z
			 M496.386,254.548c-1.921,3.327-61.757,106.968-81.831,141.735c-0.535,0.927-1.794,1.306-2.769,0.741l-113.435-65.492
			l83.858-145.246c4.877,2.815,108.538,62.664,113.441,65.495C496.613,252.342,496.944,253.581,496.386,254.548z"/>
	</g>
</g>
<g>
	<g>
		<path d="M423.352,285.336c-6.027-22.497-36.524-26.787-48.317-6.361c-7.271,12.595-2.939,28.756,9.654,36.028
			C405.024,326.744,429.413,307.958,423.352,285.336z M407.734,297.853c-3.141,5.441-10.088,7.32-15.55,4.168
			c-5.436-3.139-7.306-10.115-4.167-15.551c2.106-3.648,5.939-5.689,9.878-5.689C406.657,280.782,412.093,290.307,407.734,297.853z"
			/>
	</g>
</g>
<g>
	<g>
		<path d="M425.287,244.685c-3.585-2.069-8.169-0.842-10.239,2.743l-2.261,3.915c-2.07,3.585-0.841,8.169,2.743,10.239
			c3.581,2.068,8.166,0.846,10.239-2.743l2.261-3.915C430.1,251.339,428.872,246.755,425.287,244.685z"/>
	</g>
</g>
<g>
	<g>
		<path d="M380.22,322.743c-3.584-2.07-8.169-0.842-10.239,2.743l-2.261,3.915c-2.07,3.585-0.841,8.169,2.743,10.239
			c3.581,2.068,8.166,0.845,10.239-2.743l2.261-3.915C385.034,329.397,383.805,324.813,380.22,322.743z"/>
	</g>
</g>
<g>
	<g>
		<path d="M394.038,248.876l-1.169-4.366c-1.071-4.002-5.187-6.37-9.179-5.303c-4,1.07-6.373,5.181-5.303,9.18l1.169,4.366
			c1.071,4.001,5.182,6.372,9.18,5.303C392.735,256.986,395.108,252.875,394.038,248.876z"/>
	</g>
</g>
<g>
	<g>
		<path d="M417.365,335.937l-1.17-4.367c-1.07-3.999-5.183-6.372-9.18-5.3c-3.999,1.07-6.371,5.182-5.3,9.18l1.17,4.367
			c1.074,4.01,5.196,6.37,9.18,5.3C416.064,344.047,418.436,339.936,417.365,335.937z"/>
	</g>
</g>
<g>
	<g>
		<path d="M364.552,264.267l-3.915-2.261c-3.585-2.07-8.169-0.842-10.239,2.743c-2.07,3.585-0.842,8.169,2.743,10.239l3.915,2.261
			c3.581,2.068,8.166,0.846,10.239-2.743C369.366,270.922,368.137,266.338,364.552,264.267z"/>
	</g>
</g>
<g>
	<g>
		<path d="M442.611,309.335l-3.916-2.261c-3.587-2.07-8.171-0.842-10.239,2.743c-2.07,3.586-0.841,8.17,2.743,10.239l3.916,2.261
			c3.59,2.071,8.172,0.839,10.239-2.743C447.424,315.988,446.196,311.404,442.611,309.335z"/>
	</g>
</g>
<g>
	<g>
		<path d="M363.769,301.304c-1.07-3.999-5.186-6.374-9.179-5.303l-4.366,1.169c-4,1.07-6.373,5.181-5.303,9.18
			c1.07,3.998,5.18,6.373,9.18,5.303l4.366-1.169C362.466,309.413,364.84,305.302,363.769,301.304z"/>
	</g>
</g>
<g>
	<g>
		<path d="M450.831,277.974c-1.071-4-5.184-6.377-9.18-5.3l-4.366,1.17c-3.999,1.071-6.371,5.182-5.3,9.18
			c1.074,4.01,5.196,6.37,9.18,5.3l4.366-1.17C449.53,286.083,451.902,281.973,450.831,277.974z"/>
	</g>
</g>
<g>
	<g>
		<path d="M298.767,167.006l-115.653-66.772c-3.587-2.07-8.17-0.842-10.239,2.743c-2.071,3.585-0.841,8.169,2.743,10.239
			l115.653,66.772c3.59,2.071,8.172,0.839,10.239-2.743C303.58,173.66,302.352,169.075,298.767,167.006z"/>
	</g>
</g>
<g>
	<g>
		<path d="M306.736,211.128l-165.818-95.735c-3.587-2.069-8.17-0.844-10.239,2.743c-2.07,3.585-0.841,8.169,2.743,10.239
			l165.818,95.735c3.59,2.071,8.172,0.839,10.239-2.743C311.55,217.782,310.321,213.198,306.736,211.128z"/>
	</g>
</g>
<g>
	<g>
		<path d="M289.624,240.768l-165.818-95.734c-3.588-2.07-8.17-0.842-10.239,2.743c-2.07,3.585-0.841,8.169,2.743,10.239
			l165.818,95.734c3.59,2.071,8.172,0.839,10.239-2.743C294.437,247.422,293.209,242.838,289.624,240.768z"/>
	</g>
</g>
<g>
	<g>
		<path d="M272.51,270.408l-165.817-95.734c-3.587-2.07-8.17-0.842-10.239,2.743c-2.07,3.585-0.841,8.169,2.743,10.239
			l165.817,95.734c3.59,2.071,8.172,0.838,10.239-2.743C277.323,277.062,276.095,272.478,272.51,270.408z"/>
	</g>
</g>
<g>
</g>
<g>
</g>
<g>
</g>
<g>
</g>
<g>
</g>
<g>
</g>
<g>
</g>
<g>
</g>
<g>
</g>
<g>
</g>
<g>
</g>
<g>
</g>
<g>
</g>
<g>
</g>
<g>
</g>
</svg>
