<?xml version="1.0" encoding="iso-8859-1"?>
<!-- Generator: Adobe Illustrator 19.0.0, SVG Export Plug-In . SVG Version: 6.00 Build 0)  -->
<svg version="1.1" id="Capa_1" xmlns="http://www.w3.org/2000/svg" xmlns:xlink="http://www.w3.org/1999/xlink" x="0px" y="0px"
	 viewBox="0 0 512 512" style="enable-background:new 0 0 512 512;" xml:space="preserve">
<path style="fill:#E4EAF8;" d="M421.32,400.22c-2.635,4.564-8.464,6.11-13.009,3.486l-119.925-69.239l0,0l-74.06-42.759H17.291
	c-5.26,0-9.524,4.264-9.524,9.524v163.66c0,5.26,4.263,9.524,9.524,9.524h411.738c5.26,0,9.524-4.264,9.524-9.524v-94.52
	L421.32,400.22z"/>
<path style="fill:#D8DCE5;" d="M27.755,464.891v-163.66c0-5.26,4.263-9.524,9.524-9.524H17.292c-5.26,0-9.524,4.264-9.524,9.524
	v163.66c0,5.26,4.263,9.524,9.524,9.524H37.28C32.019,474.415,27.755,470.151,27.755,464.891z"/>
<path style="fill:#00C3FF;" d="M408.309,403.706L290.55,335.718v138.697h138.478c2.959,0,5.602-1.349,7.349-3.466
	c0.194-0.235,0.377-0.48,0.548-0.734c0.343-0.507,0.638-1.048,0.878-1.618c0.241-0.57,0.428-1.167,0.555-1.788
	c0.127-0.62,0.194-1.262,0.194-1.92v-94.52l-17.234,29.849C418.684,404.785,412.856,406.331,408.309,403.706z"/>
<polygon style="fill:#00AAF0;" points="290.551,335.718 290.551,474.415 310.24,474.415 310.24,347.085 "/>
<path style="fill:#FFC850;" d="M364.552,401.94c8.417,0,15.541-5.511,17.977-13.119l-31.936-18.438
	c-3.047,3.353-4.92,7.791-4.92,12.678C345.673,393.488,354.125,401.94,364.552,401.94z"/>
<path style="fill:#F9B428;" d="M366.046,379.305l-15.454-8.922c-3.046,3.352-4.92,7.791-4.92,12.678
	c0,10.427,8.452,18.879,18.879,18.879c3.679,0,7.11-1.052,10.011-2.873C367.969,394.948,364.442,387.173,366.046,379.305z"/>
<path style="fill:#E4EAF8;" d="M409.182,405.208L50.862,198.333c-4.074-2.352-5.47-7.56-3.117-11.634l82.836-143.477
	c2.352-4.074,7.56-5.47,11.634-3.117l358.319,206.876c4.074,2.352,5.47,7.56,3.117,11.634l-82.836,143.477
	C418.464,406.165,413.255,407.561,409.182,405.208z"/>
<path style="fill:#D8DCE5;" d="M71.387,193.336c-4.074-2.352-5.47-7.56-3.117-11.634l79.8-138.218l-5.853-3.38
	c-4.074-2.352-9.282-0.956-11.635,3.117L47.744,186.699c-2.352,4.074-0.956,9.282,3.117,11.634l358.319,206.876
	c4.074,2.352,9.282,0.956,11.635-3.117l3.036-5.259L71.387,193.336z"/>
<path style="fill:#FF5050;" d="M499.663,246.477l-119.925-69.239l-91.353,158.229l119.925,69.239
	c4.555,2.63,10.38,1.069,13.01-3.486l81.83-141.733C505.779,254.931,504.219,249.106,499.663,246.477z"/>
<path style="fill:#F24040;" d="M421.319,401.221l2.533-4.389l-128.173-74l-7.295,12.635l119.925,69.239
	C412.865,407.335,418.688,405.775,421.319,401.221z"/>
<circle style="fill:#FFC850;" cx="398.151" cy="293.354" r="18.879"/>
<path style="fill:#F9B428;" d="M401.544,283.913c1.625-2.815,3.868-5.053,6.456-6.642c-0.141-0.086-0.27-0.185-0.414-0.268
	c-9.03-5.213-20.576-2.12-25.788,6.91c-5.214,9.03-2.12,20.576,6.91,25.788c6.214,3.588,13.62,3.24,19.332-0.268
	C399.343,304.108,396.415,292.799,401.544,283.913z"/>
<path d="M371.775,430.198v-4.52c0-4.141-3.355-7.495-7.495-7.495c-4.141,0-7.496,3.355-7.496,7.495v4.52
	c0,4.141,3.355,7.495,7.496,7.495C368.42,437.694,371.775,434.338,371.775,430.198z"/>
<path d="M403.047,421.636c2.927-2.928,2.926-7.674-0.001-10.6l-3.197-3.196c-2.93-2.93-7.676-2.927-10.6,0.001
	c-2.927,2.928-2.926,7.674,0.001,10.6l3.197,3.196C395.374,424.565,400.122,424.563,403.047,421.636z"/>
<path d="M321.474,375.375h-4.52c-4.141,0-7.496,3.355-7.496,7.496c0,4.141,3.355,7.495,7.496,7.495h4.52
	c4.141,0,7.496-3.355,7.496-7.495C328.969,378.73,325.614,375.375,321.474,375.375z"/>
<path d="M325.514,421.637c2.929,2.927,7.673,2.926,10.601,0l3.196-3.196c2.927-2.928,2.927-7.673,0-10.601
	c-2.928-2.926-7.673-2.926-10.601,0l-3.196,3.196C322.587,413.964,322.587,418.709,325.514,421.637z"/>
<path d="M215.871,339.027c4.141,0,7.495-3.355,7.495-7.495c0-4.141-3.355-7.496-7.495-7.496H82.326
	c-4.141,0-7.495,3.355-7.495,7.496c0,4.141,3.355,7.495,7.495,7.495H215.871z"/>
<path d="M45.868,365.758c0,4.141,3.355,7.495,7.495,7.495h191.469c4.141,0,7.495-3.355,7.495-7.495s-3.355-7.495-7.495-7.495H53.364
	C49.223,358.263,45.868,361.619,45.868,365.758z"/>
<path d="M53.364,407.479h191.469c4.141,0,7.495-3.355,7.495-7.496c0-4.141-3.355-7.495-7.495-7.495H53.364
	c-4.141,0-7.495,3.355-7.495,7.495C45.868,404.124,49.223,407.479,53.364,407.479z"/>
<path d="M53.364,441.705h191.469c4.141,0,7.495-3.355,7.495-7.495c0-4.141-3.355-7.496-7.495-7.496H53.364
	c-4.141,0-7.495,3.355-7.495,7.496C45.868,438.35,49.223,441.705,53.364,441.705z"/>
<path d="M503.154,238.804l-0.014-0.009h-0.001c-6.544-3.778-350.144-202.156-357.449-206.374c-7.645-4.412-17.46-1.785-21.873,5.862
	L40.982,181.761c-4.425,7.665-1.804,17.449,5.86,21.874l139.236,80.389H17.019C7.635,284.022,0,291.658,0,301.041v163.66
	c0,9.384,7.635,17.019,17.019,17.019h114.59c4.141,0,7.495-3.355,7.495-7.495s-3.355-7.495-7.495-7.495H17.019
	c-1.118,0-2.028-0.909-2.028-2.028v-163.66c0-1.118,0.909-2.028,2.028-2.028h195.026c8.853,5.111,61.789,35.674,70.739,40.841
	v38.273c0,4.141,3.355,7.495,7.495,7.495c4.141,0,7.496-3.355,7.496-7.495v-29.618c4.584,2.646,37.529,21.668,42.131,24.324
	c-1.306,3.158-2,6.559-2,10.036c0,25.201,32.072,35.873,47.262,16.095c0.178,0.103,18.981,10.959,19.158,11.059
	c9.196,5.312,18.554,1.822,22.71-5.378l3.75-6.495v66.546c0,1.12-0.93,2.028-2.028,2.028H297.775v-53.622
	c0-4.141-3.355-7.496-7.496-7.496c-4.141,0-7.495,3.355-7.495,7.496v53.622H166.588c-4.141,0-7.495,3.355-7.495,7.495
	s3.355,7.495,7.495,7.495c7.036,0,255.205,0,262.169,0c9.428,0,17.019-7.704,17.019-17.019v-92.511
	c2.581-4.471,60.417-104.645,63.592-110.144c0-0.001,0.001-0.001,0.001-0.001C514.841,252.565,511.299,243.507,503.154,238.804z
	 M285.369,324.037c-8.416-4.859-218.778-126.311-231.031-133.386c-0.488-0.282-0.656-0.907-0.374-1.395L136.801,45.78
	c0.189-0.328,0.534-0.512,0.887-0.512c0.174,0,0.349,0.044,0.509,0.137l231.031,133.387L285.369,324.037z M353.154,380.483
	l18.768,10.835C363.772,398.703,350.815,391.231,353.154,380.483z M496.386,254.548c-1.921,3.327-61.757,106.968-81.831,141.735
	c-0.535,0.927-1.794,1.306-2.769,0.741l-113.435-65.492l83.858-145.246c4.877,2.815,108.538,62.664,113.441,65.495
	C496.613,252.342,496.944,253.581,496.386,254.548z"/>
<path d="M375.035,278.975c-7.271,12.595-2.939,28.756,9.654,36.028c20.335,11.74,44.723-7.046,38.663-29.667
	C417.325,262.839,386.828,258.55,375.035,278.975z M407.734,297.853C407.734,297.854,407.734,297.854,407.734,297.853
	c-3.141,5.441-10.088,7.32-15.55,4.168c-5.436-3.139-7.306-10.115-4.168-15.551c2.106-3.648,5.939-5.689,9.878-5.689
	C406.657,280.782,412.093,290.307,407.734,297.853z"/>
<path d="M425.287,244.685c-3.585-2.069-8.169-0.842-10.239,2.743l-2.261,3.915c-2.07,3.585-0.842,8.169,2.743,10.239
	c3.581,2.068,8.166,0.846,10.239-2.743l2.261-3.915C430.1,251.339,428.872,246.755,425.287,244.685z"/>
<path d="M380.22,322.743c-3.584-2.07-8.169-0.842-10.239,2.743l-2.261,3.915c-2.07,3.585-0.842,8.169,2.743,10.239
	c3.581,2.068,8.166,0.845,10.239-2.743l2.261-3.915C385.034,329.397,383.805,324.813,380.22,322.743z"/>
<path d="M379.556,252.753c1.071,4.001,5.182,6.372,9.179,5.303c4-1.07,6.373-5.181,5.303-9.179l-1.169-4.366
	c-1.071-4.002-5.187-6.37-9.179-5.303c-4,1.07-6.373,5.181-5.303,9.179L379.556,252.753z"/>
<path d="M416.195,331.57c-1.07-3.999-5.183-6.372-9.18-5.3c-3.999,1.07-6.371,5.182-5.3,9.18l1.17,4.367
	c1.074,4.01,5.196,6.37,9.18,5.3c3.999-1.07,6.371-5.182,5.3-9.18L416.195,331.57z"/>
<path d="M364.552,264.267l-3.915-2.261c-3.585-2.07-8.169-0.842-10.239,2.743c-2.07,3.585-0.841,8.169,2.743,10.239l3.915,2.261
	c3.581,2.068,8.166,0.845,10.239-2.743C369.366,270.922,368.137,266.338,364.552,264.267z"/>
<path d="M442.611,309.335l-3.916-2.261c-3.587-2.07-8.171-0.842-10.239,2.743c-2.07,3.586-0.842,8.17,2.743,10.239l3.916,2.261
	c3.59,2.071,8.172,0.839,10.239-2.743C447.424,315.988,446.196,311.404,442.611,309.335z"/>
<path d="M354.59,296.001l-4.366,1.169c-4,1.07-6.373,5.181-5.303,9.179c1.07,3.998,5.18,6.373,9.179,5.303l4.366-1.169
	c4-1.07,6.373-5.181,5.303-9.179C362.699,297.305,358.583,294.93,354.59,296.001z"/>
<path d="M441.65,272.674l-4.366,1.17c-3.999,1.071-6.371,5.182-5.3,9.18c1.074,4.01,5.196,6.37,9.18,5.3l4.366-1.17
	c3.999-1.071,6.371-5.182,5.3-9.18C449.759,273.974,445.647,271.597,441.65,272.674z"/>
<path d="M175.618,113.216l115.653,66.772c3.59,2.071,8.172,0.839,10.239-2.743c2.07-3.585,0.841-8.169-2.743-10.239l-115.653-66.772
	c-3.587-2.07-8.17-0.842-10.239,2.743C170.804,106.562,172.034,111.146,175.618,113.216z"/>
<path d="M306.736,211.128l-165.818-95.735c-3.587-2.069-8.17-0.843-10.239,2.743c-2.07,3.585-0.841,8.169,2.743,10.239
	l165.818,95.735c3.59,2.071,8.172,0.839,10.239-2.743C311.55,217.782,310.321,213.198,306.736,211.128z"/>
<path d="M289.624,240.768l-165.818-95.734c-3.588-2.07-8.17-0.842-10.239,2.743c-2.07,3.585-0.841,8.169,2.743,10.239
	l165.818,95.734c3.59,2.071,8.172,0.839,10.239-2.743C294.437,247.422,293.209,242.838,289.624,240.768z"/>
<path d="M272.51,270.408l-165.817-95.734c-3.587-2.07-8.17-0.842-10.239,2.743c-2.07,3.585-0.841,8.169,2.743,10.239l165.817,95.734
	c3.59,2.071,8.172,0.839,10.239-2.743C277.323,277.062,276.095,272.478,272.51,270.408z"/>
<g>
</g>
<g>
</g>
<g>
</g>
<g>
</g>
<g>
</g>
<g>
</g>
<g>
</g>
<g>
</g>
<g>
</g>
<g>
</g>
<g>
</g>
<g>
</g>
<g>
</g>
<g>
</g>
<g>
</g>
</svg>
