<?xml version="1.0" encoding="iso-8859-1"?>
<!-- Generator: Adobe Illustrator 19.0.0, SVG Export Plug-In . SVG Version: 6.00 Build 0)  -->
<svg version="1.1" id="Capa_1" xmlns="http://www.w3.org/2000/svg" xmlns:xlink="http://www.w3.org/1999/xlink" x="0px" y="0px"
	 viewBox="0 0 512 512" style="enable-background:new 0 0 512 512;" xml:space="preserve">
<g>
	<g>
		<path d="M64.006,212.872c-5.522,0-10,4.499-10,10.022s4.477,10,10,10c5.522,0,10-4.477,10-10v-0.044
			C74.006,217.327,69.528,212.872,64.006,212.872z"/>
	</g>
</g>
<g>
	<g>
		<path d="M407.994,0H104.006c-27.57,0-50,22.43-50,50v133.16c0,5.523,4.478,10,10,10c5.522,0,10-4.477,10-10V50
			c0-16.542,13.458-30,30-30h303.988c16.542,0,30,13.458,30,30v332c0,16.542-13.458,30-30,30H104.006
			c-11.248,0-21.638,3.735-30,10.027V261.708c0-5.523-4.478-10-10-10c-5.522,0-10,4.477-10,10V462c0,27.57,22.43,50,50,50h303.988
			c27.57,0,50-22.43,50-50V50C457.994,22.43,435.564,0,407.994,0z M437.994,462c0,16.542-13.458,30-30,30H104.006
			c-16.542,0-30-13.458-30-30s13.458-30,30-30h303.988c11.245,0,21.635-3.732,29.996-10.021
			c-0.079,16.475-13.503,29.854-29.996,29.854H154.339c-5.522,0-10,4.477-10,10s4.478,10,10,10h253.655
			c11.248,0,21.638-3.735,30-10.027V462z"/>
	</g>
</g>
<g>
	<g>
		<path d="M127.781,455.038c-1.859-1.86-4.439-2.93-7.069-2.93c-2.63,0-5.209,1.07-7.07,2.93c-1.861,1.86-2.93,4.44-2.93,7.07
			s1.07,5.21,2.93,7.07c1.86,1.86,4.44,2.93,7.07,2.93c2.63,0,5.21-1.07,7.069-2.93c1.861-1.86,2.931-4.44,2.931-7.07
			C130.712,459.468,129.641,456.898,127.781,455.038z"/>
	</g>
</g>
<g>
	<g>
		<path d="M373.205,246.836l-37.435-37.434c-5.588-5.588-13.018-8.666-20.921-8.666c-7.902,0-15.332,3.078-20.92,8.666
			l-12.178,12.178c-1.205,1.204-2.612,1.384-3.343,1.384c-0.731,0-2.137-0.179-3.341-1.384l-36.525-36.525
			c-1.843-1.842-1.843-4.84,0-6.683l12.179-12.178c11.535-11.535,11.535-30.305,0-41.841L213.317,86.95
			c-5.98-5.98-14.242-9.12-22.691-8.613c-8.441,0.506-16.278,4.612-21.5,11.264h-0.001l-8.032,10.232
			c-29.746,37.892-26.491,92.154,7.572,126.218l65.438,65.438c18.477,18.477,42.889,27.887,67.415,27.887
			c20.69,0,41.463-6.703,58.803-20.315l10.232-8.033c6.652-5.223,10.757-13.059,11.264-21.5
			C382.323,261.087,379.184,252.816,373.205,246.836z M361.85,268.333c-0.166,2.775-1.461,5.249-3.648,6.965l-10.232,8.033
			c-29.939,23.503-72.813,20.931-99.726-5.983l-65.438-65.438c-26.914-26.914-29.486-69.787-5.982-99.726l8.032-10.232
			c1.717-2.187,4.191-3.483,6.966-3.65c2.781-0.167,5.386,0.825,7.352,2.791l37.404,37.403c3.737,3.738,3.737,9.82,0,13.557
			l-12.179,12.179c-9.641,9.641-9.641,25.327,0,34.968l36.525,36.525c4.67,4.67,10.879,7.242,17.483,7.242
			s12.813-2.572,17.484-7.242l12.179-12.179c1.81-1.811,4.217-2.808,6.777-2.808c2.56,0,4.967,0.997,6.778,2.808l37.435,37.434
			C361.026,262.946,362.017,265.558,361.85,268.333z"/>
	</g>
</g>
<g>
</g>
<g>
</g>
<g>
</g>
<g>
</g>
<g>
</g>
<g>
</g>
<g>
</g>
<g>
</g>
<g>
</g>
<g>
</g>
<g>
</g>
<g>
</g>
<g>
</g>
<g>
</g>
<g>
</g>
</svg>
