<?xml version="1.0" encoding="iso-8859-1"?>
<!-- Generator: Adobe Illustrator 19.0.0, SVG Export Plug-In . SVG Version: 6.00 Build 0)  -->
<svg version="1.1" id="Capa_1" xmlns="http://www.w3.org/2000/svg" xmlns:xlink="http://www.w3.org/1999/xlink" x="0px" y="0px"
	 viewBox="0 0 512 512" style="enable-background:new 0 0 512 512;" xml:space="preserve">
<path style="fill:#FF5A5A;" d="M408.494,502H103.506c-21.815,0-39.5-17.685-39.5-39.5v-413c0-21.815,17.685-39.5,39.5-39.5h304.988
	c21.815,0,39.5,17.685,39.5,39.5v413C447.994,484.315,430.309,502,408.494,502z"/>
<path style="fill:#7D9BFF;" d="M176.99,95.777l-8.032,10.232c-26.65,33.948-23.74,82.454,6.778,112.972l65.438,65.438
	c30.518,30.518,79.024,33.428,112.972,6.778l10.232-8.032c9.239-7.253,10.061-20.95,1.755-29.255l-37.434-37.434
	c-7.649-7.649-20.05-7.649-27.699,0l-12.179,12.179c-5.751,5.751-15.074,5.751-20.825,0l-36.525-36.525
	c-5.751-5.751-5.751-15.074,0-20.825l12.179-12.179c7.649-7.649,7.649-20.05,0-27.699l-37.404-37.404
	C197.94,85.716,184.243,86.538,176.99,95.777z"/>
<path style="fill:#FFFFFF;" d="M407.91,502H104.089c-22.137,0-40.083-17.946-40.083-40.083l0,0
	c0-22.137,17.946-40.083,40.083-40.083h343.905v40.083C447.994,484.054,430.048,502,407.91,502z"/>
<path d="M64.006,232.894c5.522,0,10-4.477,10-10v-0.044c0-5.523-4.478-9.978-10-9.978s-10,4.499-10,10.022
	S58.483,232.894,64.006,232.894z"/>
<path d="M407.994,0H104.006c-27.57,0-50,22.43-50,50v133.16c0,5.523,4.478,10,10,10s10-4.477,10-10V50c0-16.542,13.458-30,30-30
	h303.988c16.542,0,30,13.458,30,30v332c0,16.542-13.458,30-30,30H104.006c-11.248,0-21.638,3.735-30,10.027V261.708
	c0-5.523-4.478-10-10-10s-10,4.477-10,10V462c0,27.57,22.43,50,50,50h303.988c27.57,0,50-22.43,50-50V50
	C457.994,22.43,435.564,0,407.994,0z M407.994,492H104.006c-16.542,0-30-13.458-30-30s13.458-30,30-30h303.988
	c11.245,0,21.635-3.732,29.996-10.021c-0.079,16.475-13.503,29.854-29.996,29.854H154.339c-5.522,0-10,4.477-10,10s4.478,10,10,10
	h253.655c11.248,0,21.638-3.735,30-10.027V462C437.994,478.542,424.536,492,407.994,492z"/>
<path d="M120.712,452.108c2.63,0,5.21,1.07,7.069,2.93c1.86,1.86,2.931,4.43,2.931,7.07c0,2.63-1.07,5.21-2.931,7.07
	c-1.859,1.86-4.439,2.93-7.069,2.93s-5.21-1.07-7.07-2.93s-2.93-4.44-2.93-7.07s1.069-5.21,2.93-7.07
	S118.082,452.108,120.712,452.108z"/>
<path d="M301.518,319.376c-24.526,0-48.938-9.41-67.415-27.887l-65.438-65.438c-34.063-34.064-37.318-88.326-7.572-126.218
	l8.032-10.232h0.001c5.222-6.652,13.059-10.758,21.5-11.264c8.449-0.507,16.711,2.633,22.691,8.613l37.404,37.403
	c11.535,11.536,11.535,30.306,0,41.841l-12.179,12.178c-1.843,1.843-1.843,4.841,0,6.683l36.525,36.525
	c1.204,1.205,2.61,1.384,3.341,1.384c0.731,0,2.138-0.18,3.343-1.384l12.178-12.178c5.588-5.588,13.018-8.666,20.92-8.666
	c7.903,0,15.333,3.078,20.921,8.666l37.435,37.434c5.979,5.98,9.118,14.251,8.612,22.692c-0.507,8.441-4.612,16.277-11.264,21.5
	l-10.232,8.033C342.981,312.673,322.208,319.376,301.518,319.376z M184.856,101.952l-8.032,10.232
	c-23.504,29.939-20.932,72.812,5.982,99.726l65.438,65.438c26.913,26.914,69.787,29.486,99.726,5.983l10.232-8.033
	c2.187-1.716,3.482-4.19,3.648-6.965c0.167-2.775-0.824-5.387-2.79-7.353l-37.435-37.434c-1.811-1.811-4.218-2.808-6.778-2.808
	c-2.56,0-4.967,0.997-6.777,2.808l-12.179,12.179c-4.671,4.67-10.88,7.242-17.484,7.242s-12.813-2.572-17.483-7.242L224.399,199.2
	c-9.641-9.641-9.641-25.327,0-34.968l12.179-12.179c3.737-3.737,3.737-9.819,0-13.557l-37.404-37.403
	c-1.966-1.966-4.571-2.958-7.352-2.791C189.047,98.469,186.573,99.765,184.856,101.952L184.856,101.952z"/>
<g>
</g>
<g>
</g>
<g>
</g>
<g>
</g>
<g>
</g>
<g>
</g>
<g>
</g>
<g>
</g>
<g>
</g>
<g>
</g>
<g>
</g>
<g>
</g>
<g>
</g>
<g>
</g>
<g>
</g>
</svg>
