<?xml version="1.0" encoding="iso-8859-1"?>
<!-- Generator: Adobe Illustrator 19.0.0, SVG Export Plug-In . SVG Version: 6.00 Build 0)  -->
<svg version="1.1" id="Capa_1" xmlns="http://www.w3.org/2000/svg" xmlns:xlink="http://www.w3.org/1999/xlink" x="0px" y="0px"
	 viewBox="0 0 512.005 512.005" style="enable-background:new 0 0 512.005 512.005;" xml:space="preserve">
<polygon style="fill:#1042A1;" points="501.106,119.833 495.768,153.385 490.213,152.513 111.006,152.513 98.043,98.045 "/>
<polygon style="fill:#62BEFF;" points="111.006,152.513 490.213,152.513 495.768,153.385 468.426,326.811 152.511,326.811 "/>
<g>
	<path style="fill:#454545;" d="M468.426,337.705H152.511c-5.044,0-9.434-3.464-10.599-8.377L87.443,100.562
		c-0.795-3.333,0.033-6.863,2.233-9.499c2.19-2.658,5.512-4.118,8.955-3.911l403.064,21.787c6.002,0.327,10.621,5.458,10.294,11.46
		c-0.022,0.381-0.065,0.752-0.12,1.133l-32.681,206.979C478.35,333.805,473.785,337.705,468.426,337.705z M161.117,315.918h298.006
		l29.326-185.867l-376.429-20.338L161.117,315.918z"/>
	<path style="fill:#454545;" d="M217.872,479.322h-32.681c-5.076,0-9.477-3.497-10.621-8.443l-32.681-141.617l21.243-4.902
		l30.774,133.174h23.966V479.322z"/>
	<path style="fill:#454545;" d="M250.553,512.003c-24.064,0-43.574-19.51-43.574-43.574s19.51-43.574,43.574-43.574
		s43.574,19.51,43.574,43.574S274.617,512.003,250.553,512.003z M250.553,446.641c-12.037,0-21.787,9.75-21.787,21.787
		c0,12.037,9.75,21.787,21.787,21.787c12.037,0,21.787-9.75,21.787-21.787C272.34,456.391,262.591,446.641,250.553,446.641z"/>
	<path style="fill:#454545;" d="M403.064,512.003c-24.064,0-43.574-19.51-43.574-43.574s19.51-43.574,43.574-43.574
		s43.574,19.51,43.574,43.574S427.128,512.003,403.064,512.003z M403.064,446.641c-12.037,0-21.787,9.75-21.787,21.787
		c0,12.037,9.75,21.787,21.787,21.787s21.787-9.75,21.787-21.787C424.851,456.391,415.101,446.641,403.064,446.641z"/>
	<rect x="283.234" y="457.535" style="fill:#454545;" width="87.149" height="21.787"/>
	<path style="fill:#454545;" d="M87.476,100.692L67.747,21.79H0V0.003h76.255c5,0,9.358,3.399,10.567,8.246l21.787,87.149
		L87.476,100.692z"/>
</g>
<rect x="163.404" y="185.194" width="21.787" height="21.787"/>
<rect x="206.979" y="185.194" width="21.787" height="21.787"/>
<rect x="250.553" y="185.194" width="21.787" height="21.787"/>
<rect x="294.128" y="185.194" width="21.787" height="21.787"/>
<rect x="337.702" y="185.194" width="21.787" height="21.787"/>
<rect x="381.277" y="185.194" width="21.787" height="21.787"/>
<rect x="424.851" y="185.194" width="21.787" height="21.787"/>
<rect x="163.404" y="228.769" width="21.787" height="21.787"/>
<rect x="206.979" y="228.769" width="21.787" height="21.787"/>
<rect x="250.553" y="228.769" width="21.787" height="21.787"/>
<rect x="294.128" y="228.769" width="21.787" height="21.787"/>
<rect x="337.702" y="228.769" width="21.787" height="21.787"/>
<rect x="381.277" y="228.769" width="21.787" height="21.787"/>
<rect x="424.851" y="228.769" width="21.787" height="21.787"/>
<rect x="163.404" y="272.343" width="21.787" height="21.787"/>
<rect x="206.979" y="272.343" width="21.787" height="21.787"/>
<rect x="250.553" y="272.343" width="21.787" height="21.787"/>
<rect x="294.128" y="272.343" width="21.787" height="21.787"/>
<rect x="337.702" y="272.343" width="21.787" height="21.787"/>
<rect x="381.277" y="272.343" width="21.787" height="21.787"/>
<rect x="424.851" y="272.343" width="21.787" height="21.787"/>
<g>
</g>
<g>
</g>
<g>
</g>
<g>
</g>
<g>
</g>
<g>
</g>
<g>
</g>
<g>
</g>
<g>
</g>
<g>
</g>
<g>
</g>
<g>
</g>
<g>
</g>
<g>
</g>
<g>
</g>
</svg>
