<?xml version="1.0" encoding="iso-8859-1"?>
<!-- Generator: Adobe Illustrator 19.0.0, SVG Export Plug-In . SVG Version: 6.00 Build 0)  -->
<svg version="1.1" id="Capa_1" xmlns="http://www.w3.org/2000/svg" xmlns:xlink="http://www.w3.org/1999/xlink" x="0px" y="0px"
	 viewBox="0 0 512 512" style="enable-background:new 0 0 512 512;" xml:space="preserve">
<path style="fill:#62BEFF;" d="M507.661,338.441V512h-95.458v-60.746l-1.041-1.041c18.918-18.05,42.696-41.22,57.275-55.452
	c7.081-7.229,6.951-18.831-0.278-25.904c-7.073-6.925-18.363-6.977-25.496-0.13l-30.46,30.46v-8.678
	c0-28.759,23.309-52.068,52.068-52.068H507.661z"/>
<path style="fill:#FFCB5A;" d="M507.661,225.627v86.78h-52.068c-23.96,0-43.39-19.43-43.39-43.39v-43.39H507.661z"/>
<g>
	<path style="fill:#00448F;" d="M507.661,225.627h-95.458v-17.356c0.026-9.572,7.784-17.33,17.356-17.356h43.39
		C492.119,190.915,507.661,206.457,507.661,225.627z"/>
	<path style="fill:#00448F;" d="M468.523,368.727c7.168,7.133,7.185,18.727,0.052,25.895c-0.043,0.043-0.095,0.095-0.139,0.139
		c-14.579,14.232-38.357,37.402-57.275,55.452c-15.881,15.36-28.377,27.075-29.245,27.075h-91.205L256,442.576h112.814l43.39-43.39
		l30.46-30.46C449.84,361.672,461.347,361.672,468.523,368.727z"/>
</g>
<circle style="fill:#FFCB5A;" cx="256" cy="86.78" r="78.102"/>
<path style="fill:#00448F;" d="M256,442.576l-34.712,34.712h-91.205c-0.607,0-13.191-11.889-29.158-27.162
	c-18.918-18.137-42.696-41.22-57.275-55.365c-7.185-7.09-7.263-18.675-0.174-25.86c7.09-7.185,18.675-7.263,25.86-0.174l30.46,30.46
	l43.39,43.39H256z"/>
<path style="fill:#62BEFF;" d="M100.925,450.126l-1.128,1.128V512H4.339V338.441h43.39c28.759,0,52.068,23.309,52.068,52.068v8.678
	l-30.46-30.46c-7.185-7.09-18.77-7.012-25.86,0.174c-7.09,7.185-7.012,18.77,0.174,25.86
	C58.229,408.906,82.007,431.989,100.925,450.126z"/>
<path style="fill:#FFCB5A;" d="M99.797,225.627v43.39c0,23.96-19.43,43.39-43.39,43.39H4.339v-86.78H99.797z"/>
<path style="fill:#00448F;" d="M99.797,190.915v34.712H4.339c0-19.17,15.542-34.712,34.712-34.712H99.797z"/>
<g>
	<path style="fill:#EC9821;" d="M39.051,269.017H21.695v-17.356c0-4.79,3.888-8.678,8.678-8.678h17.356v17.356h-8.678V269.017z"/>
	<path style="fill:#EC9821;" d="M490.305,269.017h-17.356v-8.678h-8.678v-17.356h17.356c4.79,0,8.678,3.888,8.678,8.678V269.017z"/>
</g>
<polygon style="fill:#FFCB5A;" points="244.779,419.085 232.509,431.356 249.865,448.712 221.288,477.288 256,512 284.577,483.423 
	290.712,477.288 296.847,471.153 "/>
<g>
	<path style="fill:#EC9821;" d="M256,130.169c-14.345-0.078-25.956-11.689-26.034-26.034h17.356
		c-0.026,2.265,0.876,4.443,2.499,6.023c3.332,3.384,8.773,3.463,12.201,0.165c1.701-1.605,2.664-3.844,2.655-6.187
		c-0.035-2.065-1.206-3.94-3.046-4.877l-19.092-9.468c-7.689-3.888-12.548-11.75-12.574-20.367
		C230.036,55.079,241.655,43.459,256,43.39c14.379,0,26.034,11.655,26.034,26.034h-17.356c0-4.79-3.888-8.678-8.678-8.678
		c-2.265-0.017-4.434,0.885-6.023,2.491c-1.701,1.605-2.664,3.844-2.655,6.187c0.035,2.065,1.206,3.94,3.046,4.886l19.092,9.459
		c7.689,3.888,12.548,11.75,12.574,20.367C281.964,118.48,270.345,130.1,256,130.169z"/>
	<rect x="247.322" y="34.712" style="fill:#EC9821;" width="17.356" height="17.356"/>
	<rect x="247.322" y="121.492" style="fill:#EC9821;" width="17.356" height="17.356"/>
	<path style="fill:#EC9821;" d="M256,173.559c-47.928,0-86.78-38.851-86.78-86.78S208.072,0,256,0s86.78,38.851,86.78,86.78
		C342.728,134.682,303.902,173.507,256,173.559z M256,17.356c-38.339,0-69.424,31.084-69.424,69.424s31.084,69.424,69.424,69.424
		s69.424-31.084,69.424-69.424C325.38,48.458,294.322,17.399,256,17.356z"/>
	<rect x="39.051" y="147.525" style="fill:#EC9821;" width="17.356" height="17.356"/>
	<rect x="39.051" y="112.814" style="fill:#EC9821;" width="17.356" height="17.356"/>
	<rect x="39.051" y="78.102" style="fill:#EC9821;" width="17.356" height="17.356"/>
	<rect x="39.051" y="43.39" style="fill:#EC9821;" width="17.356" height="17.356"/>
	<rect x="73.763" y="43.39" style="fill:#EC9821;" width="17.356" height="17.356"/>
	<rect x="108.475" y="43.39" style="fill:#EC9821;" width="17.356" height="17.356"/>
	<rect x="143.186" y="43.39" style="fill:#EC9821;" width="17.356" height="17.356"/>
	<rect x="455.593" y="147.525" style="fill:#EC9821;" width="17.356" height="17.356"/>
	<rect x="455.593" y="112.814" style="fill:#EC9821;" width="17.356" height="17.356"/>
	<rect x="455.593" y="78.102" style="fill:#EC9821;" width="17.356" height="17.356"/>
	<rect x="455.593" y="43.39" style="fill:#EC9821;" width="17.356" height="17.356"/>
	<rect x="420.881" y="43.39" style="fill:#EC9821;" width="17.356" height="17.356"/>
	<rect x="386.169" y="43.39" style="fill:#EC9821;" width="17.356" height="17.356"/>
	<rect x="351.458" y="43.39" style="fill:#EC9821;" width="17.356" height="17.356"/>
</g>
<g>
</g>
<g>
</g>
<g>
</g>
<g>
</g>
<g>
</g>
<g>
</g>
<g>
</g>
<g>
</g>
<g>
</g>
<g>
</g>
<g>
</g>
<g>
</g>
<g>
</g>
<g>
</g>
<g>
</g>
</svg>
