<?xml version="1.0" encoding="iso-8859-1"?>
<!-- Generator: Adobe Illustrator 19.0.0, SVG Export Plug-In . SVG Version: 6.00 Build 0)  -->
<svg version="1.1" id="Capa_1" xmlns="http://www.w3.org/2000/svg" xmlns:xlink="http://www.w3.org/1999/xlink" x="0px" y="0px"
	 viewBox="0 0 376.008 376.008" style="enable-background:new 0 0 376.008 376.008;" xml:space="preserve">
<g>
	<g>
		<path d="M369.265,80.088c-0.275-0.044-0.553-0.073-0.831-0.088L78.329,64.32L63.761,6.056C62.87,2.497,59.671,0,56.001,0h-56v16
			h49.752l14.488,57.944l40,167.856l24,104c0.835,3.617,4.048,6.184,7.76,6.2h17.136c4.339,17.046,21.674,27.347,38.719,23.008
			c11.304-2.877,20.131-11.704,23.009-23.008h50.272c4.418,17.112,21.872,27.402,38.984,22.984s27.402-21.872,22.984-38.984
			c-4.418-17.112-21.872-27.402-38.984-22.984c-11.272,2.91-20.074,11.712-22.984,22.984h-50.272
			c-4.339-17.046-21.674-27.347-38.719-23.009c-11.304,2.877-20.131,11.704-23.009,23.009h-10.736l-20.344-88h221.944
			c3.937,0.001,7.29-2.863,7.904-6.752l24-152C376.601,84.885,373.628,80.784,369.265,80.088z M296.001,328c8.837,0,16,7.163,16,16
			s-7.163,16-16,16s-16-7.163-16-16S287.165,328,296.001,328z M184.001,328c8.837,0,16,7.163,16,16s-7.163,16-16,16s-16-7.163-16-16
			S175.165,328,184.001,328z M337.169,232H118.321L91.649,120h263.2L337.169,232z M357.377,104H87.841l-5.6-23.432l276.472,14.944
			L357.377,104z"/>
	</g>
</g>
<g>
	<g>
		<rect x="120.001" y="136" width="16" height="16"/>
	</g>
</g>
<g>
	<g>
		<rect x="152.001" y="136" width="16" height="16"/>
	</g>
</g>
<g>
	<g>
		<rect x="184.001" y="136" width="16" height="16"/>
	</g>
</g>
<g>
	<g>
		<rect x="216.001" y="136" width="16" height="16"/>
	</g>
</g>
<g>
	<g>
		<rect x="248.001" y="136" width="16" height="16"/>
	</g>
</g>
<g>
	<g>
		<rect x="280.001" y="136" width="16" height="16"/>
	</g>
</g>
<g>
	<g>
		<rect x="312.001" y="136" width="16" height="16"/>
	</g>
</g>
<g>
	<g>
		<rect x="120.001" y="168" width="16" height="16"/>
	</g>
</g>
<g>
	<g>
		<rect x="152.001" y="168" width="16" height="16"/>
	</g>
</g>
<g>
	<g>
		<rect x="184.001" y="168" width="16" height="16"/>
	</g>
</g>
<g>
	<g>
		<rect x="216.001" y="168" width="16" height="16"/>
	</g>
</g>
<g>
	<g>
		<rect x="248.001" y="168" width="16" height="16"/>
	</g>
</g>
<g>
	<g>
		<rect x="280.001" y="168" width="16" height="16"/>
	</g>
</g>
<g>
	<g>
		<rect x="312.001" y="168" width="16" height="16"/>
	</g>
</g>
<g>
	<g>
		<rect x="120.001" y="200" width="16" height="16"/>
	</g>
</g>
<g>
	<g>
		<rect x="152.001" y="200" width="16" height="16"/>
	</g>
</g>
<g>
	<g>
		<rect x="184.001" y="200" width="16" height="16"/>
	</g>
</g>
<g>
	<g>
		<rect x="216.001" y="200" width="16" height="16"/>
	</g>
</g>
<g>
	<g>
		<rect x="248.001" y="200" width="16" height="16"/>
	</g>
</g>
<g>
	<g>
		<rect x="280.001" y="200" width="16" height="16"/>
	</g>
</g>
<g>
	<g>
		<rect x="312.001" y="200" width="16" height="16"/>
	</g>
</g>
<g>
</g>
<g>
</g>
<g>
</g>
<g>
</g>
<g>
</g>
<g>
</g>
<g>
</g>
<g>
</g>
<g>
</g>
<g>
</g>
<g>
</g>
<g>
</g>
<g>
</g>
<g>
</g>
<g>
</g>
</svg>
